<svg width="24" height="24" viewBox="0 0 24 24" fill="none" xmlns="http://www.w3.org/2000/svg">
<path d="M9.90008 5.09683L4.08557 16.1973V17.783C4.08557 17.783 7.78571 22.0118 15.7146 22.0118L21.0005 9.85416C13.0716 9.85416 10.3536 6.1186 9.90008 5.09683Z" fill="url(#paint0_linear)"/>
<path d="M4.08557 16.729C4.08557 16.729 8.94897 20.0297 14.97 18.8747L20.4945 7.22287C20.4945 7.22287 15.2013 8.80722 9.9081 5.63852L4.08557 15.6706V16.729Z" fill="url(#paint1_linear)"/>
<path d="M3 15.6837H4.08429V17.78H3V15.6837Z" fill="#B78B69"/>
<path d="M3 15.6806H4.0602C6.00884 16.1741 10.908 17.2873 14.1321 15.6806L20.4932 3C20.4932 3 15.7223 5.11343 9.89127 4.58508H8.83108L3 15.6806Z" fill="url(#paint2_linear)"/>
<path d="M3 15.6838H4.06205L9.90332 4.58792H8.84127L3 15.6838Z" fill="#DD2C00"/>
<path opacity="0.83424" d="M14.4517 10.918L14.9416 10.1368C15.1612 9.4166 15.0207 9.10623 14.3704 9.10623C14.0447 9.10623 13.3774 9.07572 13.4693 8.77534C13.5622 8.47233 13.5622 8.44129 13.7739 8.29978C13.9718 8.16774 14.2506 8.03465 14.5166 7.30816C14.903 6.24342 14.3176 5.71316 13.2703 5.74946C12.1152 5.78891 11.846 6.59115 11.6343 7.16034C11.5045 7.50544 11.6834 7.96574 11.8925 8.12513C12.0139 8.2193 11.8761 8.35344 11.7864 8.5949C11.6539 8.9421 10.9977 8.9279 10.6958 9.04626C9.90709 9.35926 9.80996 9.45237 9.40982 10.1789C9.06669 10.797 8.42637 11.9585 8.42637 11.9585C9.80574 12.059 12.8152 12.4114 14.4517 10.918ZM9.36337 14.2437C9.50643 14.0659 9.79729 13.9517 9.99314 14.1285C10.0845 14.21 10.0591 14.3473 10.1388 14.4368C10.2249 14.5294 10.332 14.532 10.4535 14.5262C10.7485 14.5125 10.8853 14.2363 11.0526 14.0354C11.1751 13.8912 11.4174 13.5346 11.6296 13.655C11.8101 13.7582 11.8138 13.9891 12.0329 14.0591C12.2219 14.1196 12.3776 14.0743 12.5455 13.988C12.7867 13.8634 12.8063 13.8023 12.9208 13.5704C13.1335 13.1364 13.3489 12.7029 13.5712 12.2494C13.3526 12.3809 13.1198 12.4693 12.8875 12.5756C12.7308 12.6461 12.5624 12.7087 12.452 12.8491C12.3544 12.9712 12.2572 13.0811 12.092 13.0485C11.8719 13.0017 12.0609 12.8144 11.9051 12.7481C11.77 12.6918 11.4628 12.7944 11.3266 12.8191C11.0911 12.8591 10.9106 12.886 10.7792 13.1137C10.6562 13.3252 10.4677 13.7471 10.1499 13.5809C9.89759 13.4494 10.2544 13.0869 9.97783 12.9522C9.78304 12.8575 9.41616 12.9307 9.28366 13.0901C9.12107 13.2884 9.02552 13.6272 8.76685 13.7287C8.46279 13.8492 8.33029 13.5945 8.3815 13.3368C8.4195 13.1506 8.63171 12.8691 8.32554 12.8365C8.06846 12.8097 7.62767 12.6298 7.47564 12.8796C7.37112 13.0522 7.29141 13.2489 7.20114 13.4315C7.03116 13.7734 6.85959 14.118 6.68909 14.4589C6.70176 14.432 7.22806 14.5462 7.29299 14.5399C7.54004 14.5194 7.66568 14.2863 7.83935 14.1453C7.98347 14.027 8.33663 13.9181 8.49816 14.0385C8.69453 14.1869 8.54092 14.4931 8.82862 14.5846C9.10101 14.673 9.22664 14.4194 9.36337 14.2437Z" fill="url(#paint3_linear)"/>
<defs>
<linearGradient id="paint0_linear" x1="12.543" y1="5.09683" x2="12.543" y2="22.0118" gradientUnits="userSpaceOnUse">
<stop stop-color="#F9F9F9"/>
<stop offset="1" stop-color="#CBC5A0"/>
</linearGradient>
<linearGradient id="paint1_linear" x1="12.29" y1="5.73495" x2="12.29" y2="19.1199" gradientUnits="userSpaceOnUse">
<stop stop-color="#FFFDF0"/>
<stop offset="1" stop-color="#FFF6C6"/>
</linearGradient>
<linearGradient id="paint2_linear" x1="11.7466" y1="3" x2="11.7466" y2="16.5175" gradientUnits="userSpaceOnUse">
<stop stop-color="#F7D669"/>
<stop offset="1" stop-color="#EBB572"/>
</linearGradient>
<linearGradient id="paint3_linear" x1="10.8636" y1="5.74771" x2="10.8636" y2="14.6028" gradientUnits="userSpaceOnUse">
<stop stop-color="white" stop-opacity="0.395569"/>
<stop offset="1" stop-color="white"/>
</linearGradient>
</defs>
</svg>
