<svg width="24" height="24" viewBox="0 0 24 24" fill="none" xmlns="http://www.w3.org/2000/svg">
<path d="M18.1579 8.19293H21V19.5857H18.1579V8.19293ZM14.3684 11.9905H17.2105V19.5857H14.3684V11.9905ZM10.5789 10.0917H13.4211V19.5857H10.5789V10.0917ZM6.78947 14.8387H9.63158V19.5857H6.78947V14.8387ZM3 12.9399H5.84211V19.5857H3V12.9399Z" fill="url(#paint0_linear)"/>
<path d="M4.41461 7.21331L8.22126 8.19216L12.0007 5.06527L15.7802 6.53355L19.5868 3.92328" stroke="#6CC399" stroke-width="3" stroke-linecap="round" stroke-linejoin="round"/>
<path d="M4.42745 7.9491C4.94553 7.9491 5.36551 7.52911 5.36551 7.01103C5.36551 6.49295 4.94553 6.07297 4.42745 6.07297C3.90937 6.07297 3.48938 6.49295 3.48938 7.01103C3.48938 7.52911 3.90937 7.9491 4.42745 7.9491Z" fill="#BCDE6B"/>
<path d="M8.23348 9.14579C8.75156 9.14579 9.17154 8.7258 9.17154 8.20772C9.17154 7.68964 8.75156 7.26965 8.23348 7.26965C7.7154 7.26965 7.29541 7.68964 7.29541 8.20772C7.29541 8.7258 7.7154 9.14579 8.23348 9.14579Z" fill="#BCDE6B"/>
<path d="M12.0138 6.07282C12.5318 6.07282 12.9518 5.65283 12.9518 5.13475C12.9518 4.61667 12.5318 4.19669 12.0138 4.19669C11.4957 4.19669 11.0757 4.61667 11.0757 5.13475C11.0757 5.65283 11.4957 6.07282 12.0138 6.07282Z" fill="#BCDE6B"/>
<path d="M15.8217 7.26752C16.3398 7.26752 16.7598 6.84753 16.7598 6.32945C16.7598 5.81137 16.3398 5.39139 15.8217 5.39139C15.3037 5.39139 14.8837 5.81137 14.8837 6.32945C14.8837 6.84753 15.3037 7.26752 15.8217 7.26752Z" fill="#BCDE6B"/>
<path d="M19.6001 4.87613C20.1181 4.87613 20.5381 4.45615 20.5381 3.93807C20.5381 3.41999 20.1181 3 19.6001 3C19.082 3 18.662 3.41999 18.662 3.93807C18.662 4.45615 19.082 4.87613 19.6001 4.87613Z" fill="#BCDE6B"/>
<defs>
<linearGradient id="paint0_linear" x1="13.0343" y1="16.4435" x2="14.6747" y2="8.62076" gradientUnits="userSpaceOnUse">
<stop stop-color="#38A3BB"/>
<stop offset="1" stop-color="#A8BDC2"/>
</linearGradient>
</defs>
</svg>
