<svg width="24" height="24" viewBox="0 0 24 24" fill="none" xmlns="http://www.w3.org/2000/svg">
<path fill-rule="evenodd" clip-rule="evenodd" d="M11.5 18C12.783 18 13.9792 17.6283 14.9867 16.9867L17 19H18.75L19 18.75V17L16.9867 14.9867C17.6283 13.9792 18 12.783 18 11.5C18 7.91015 15.0899 5 11.5 5C7.91015 5 5 7.91015 5 11.5C5 15.0899 7.91015 18 11.5 18ZM16 11.5C16 13.9853 13.9853 16 11.5 16C9.01472 16 7 13.9853 7 11.5C7 9.01472 9.01472 7 11.5 7C13.9853 7 16 9.01472 16 11.5Z" fill="#02081B"/>
</svg>
