<svg width="70" height="34" viewBox="0 0 70 34" fill="none" xmlns="http://www.w3.org/2000/svg">
<path d="M59.1025 7.96345C56.4859 7.96345 54.1541 8.9987 52.3749 10.8314V0H43.3678V19.1315C42.5338 12.5681 37.0783 7.79402 30.0238 7.79402C22.4067 7.79402 16.5687 13.4983 16.5687 20.897C16.5671 22.0406 16.711 23.1796 16.9968 24.2857H9.11835V0H0V33.0399H17.0691L17.8775 26.6759C20.0126 31.0631 24.5606 34 30.0238 34C37.1267 34 42.5382 29.2773 43.3678 22.6812V33.0399H51.7077V30.5136C53.4758 32.6033 56.0039 33.7176 59.1025 33.7176C64.8292 33.7176 70 27.5615 70 20.8405C70 13.4983 65.3296 7.96345 59.1025 7.96345ZM30.0238 25.4153C27.5218 25.4153 25.5203 23.3821 25.5203 20.897C25.5203 18.412 27.5218 16.3787 30.0238 16.3787C32.5814 16.3787 34.5274 18.3555 34.5274 20.897C34.5274 23.4385 32.5258 25.4153 30.0238 25.4153ZM56.4337 25.3588C53.8761 25.3588 51.8189 23.3256 51.8189 20.8405C51.8174 20.2264 51.9351 19.618 52.1651 19.0501C52.3951 18.4821 52.733 17.9658 53.1594 17.5305C53.5859 17.0952 54.0926 16.7495 54.6505 16.5131C55.2085 16.2767 55.8069 16.1543 56.4114 16.1528H56.4337C59.0469 16.1528 61.1596 18.2425 61.1596 20.8405C61.1596 23.3256 59.0469 25.3588 56.4337 25.3588Z" fill="#0099D7"/>
</svg>
